<svg width="18" height="19" viewBox="0 0 18 19" fill="none" xmlns="http://www.w3.org/2000/svg">
<path d="M2.25 5.74998H3.318C3.4738 6.23956 3.78131 6.66688 4.19604 6.97013C4.61078 7.27337 5.11123 7.43682 5.625 7.43682C6.13877 7.43682 6.63922 7.27337 7.05396 6.97013C7.46869 6.66688 7.7762 6.23956 7.932 5.74998H15.75C15.9489 5.74998 16.1397 5.67096 16.2803 5.53031C16.421 5.38966 16.5 5.19889 16.5 4.99998C16.5 4.80107 16.421 4.6103 16.2803 4.46965C16.1397 4.329 15.9489 4.24998 15.75 4.24998H7.932C7.7762 3.7604 7.46869 3.33308 7.05396 3.02983C6.63922 2.72659 6.13877 2.56314 5.625 2.56314C5.11123 2.56314 4.61078 2.72659 4.19604 3.02983C3.78131 3.33308 3.4738 3.7604 3.318 4.24998H2.25C2.05109 4.24998 1.86032 4.329 1.71967 4.46965C1.57902 4.6103 1.5 4.80107 1.5 4.99998C1.5 5.19889 1.57902 5.38966 1.71967 5.53031C1.86032 5.67096 2.05109 5.74998 2.25 5.74998Z" fill="#374151"/>
<path d="M15.75 8.74998H14.682C14.5262 8.2604 14.2187 7.83308 13.804 7.52983C13.3892 7.22659 12.8888 7.06314 12.375 7.06314C11.8612 7.06314 11.3608 7.22659 10.946 7.52983C10.5313 7.83308 10.2238 8.2604 10.068 8.74998H2.25C2.05109 8.74998 1.86032 8.829 1.71967 8.96965C1.57902 9.1103 1.5 9.30107 1.5 9.49998C1.5 9.69889 1.57902 9.88966 1.71967 10.0303C1.86032 10.171 2.05109 10.25 2.25 10.25H10.068C10.2238 10.7396 10.5313 11.1669 10.946 11.4701C11.3608 11.7734 11.8612 11.9368 12.375 11.9368C12.8888 11.9368 13.3892 11.7734 13.804 11.4701C14.2187 11.1669 14.5262 10.7396 14.682 10.25H15.75C15.9489 10.25 16.1397 10.171 16.2803 10.0303C16.421 9.88966 16.5 9.69889 16.5 9.49998C16.5 9.30107 16.421 9.1103 16.2803 8.96965C16.1397 8.829 15.9489 8.74998 15.75 8.74998Z" fill="#374151"/>
<path d="M15.75 13.25H7.932C7.7762 12.7604 7.46869 12.3331 7.05396 12.0298C6.63922 11.7266 6.13877 11.5631 5.625 11.5631C5.11123 11.5631 4.61078 11.7266 4.19604 12.0298C3.78131 12.3331 3.4738 12.7604 3.318 13.25H2.25C2.05109 13.25 1.86032 13.329 1.71967 13.4696C1.57902 13.6103 1.5 13.8011 1.5 14C1.5 14.1989 1.57902 14.3897 1.71967 14.5303C1.86032 14.671 2.05109 14.75 2.25 14.75H3.318C3.4738 15.2396 3.78131 15.6669 4.19604 15.9701C4.61078 16.2734 5.11123 16.4368 5.625 16.4368C6.13877 16.4368 6.63922 16.2734 7.05396 15.9701C7.46869 15.6669 7.7762 15.2396 7.932 14.75H15.75C15.9489 14.75 16.1397 14.671 16.2803 14.5303C16.421 14.3897 16.5 14.1989 16.5 14C16.5 13.8011 16.421 13.6103 16.2803 13.4696C16.1397 13.329 15.9489 13.25 15.75 13.25Z" fill="#374151"/>
</svg>
