<svg width="32" height="32" viewBox="0 0 32 32" fill="none" xmlns="http://www.w3.org/2000/svg">
<rect width="32" height="32" rx="16" fill="#E1EFFE"/>
<path d="M22.6667 21H10.1667V10.1667C10.1667 9.70667 9.79333 9.33334 9.33333 9.33334C8.87333 9.33334 8.5 9.70667 8.5 10.1667V21.8333C8.5 22.2933 8.87333 22.6667 9.33333 22.6667H22.6667C23.1267 22.6667 23.5 22.2933 23.5 21.8333C23.5 21.3733 23.1267 21 22.6667 21Z" fill="#1C64F2"/>
<path d="M11.8325 18.5C12.0858 18.5 12.3358 18.385 12.5 18.1667L14.4242 15.6017L17.0783 18.2558C17.4042 18.5817 17.9308 18.5817 18.2567 18.2558L21 15.5117V16.1725C21 16.6325 21.3733 17.0058 21.8333 17.0058C22.2933 17.0058 22.6667 16.6325 22.6667 16.1725V13.5C22.6667 13.3917 22.6442 13.2833 22.6025 13.1817C22.5183 12.9783 22.3558 12.8158 22.1517 12.7308C22.05 12.6892 21.9417 12.6667 21.8333 12.6667H19.1608C18.7008 12.6667 18.3275 13.04 18.3275 13.5C18.3275 13.96 18.7008 14.3333 19.1608 14.3333H19.8217L17.6667 16.4883L14.9225 13.7442C14.7517 13.5725 14.5133 13.485 14.2742 13.5017C14.0333 13.5192 13.8117 13.64 13.6667 13.8333L11.1667 17.1667C10.89 17.535 10.965 18.0575 11.3333 18.3333C11.4833 18.4458 11.6592 18.5 11.8325 18.5Z" fill="#1C64F2"/>
</svg>
