<svg width="20" height="20" viewBox="0 0 20 20" fill="none" xmlns="http://www.w3.org/2000/svg">
<path d="M8.55 5.625L8.18785 5.28026C8.08762 5.38555 7.95713 5.437 7.824 5.437C7.69966 5.437 7.5769 5.39152 7.48102 5.30011L7.48085 5.29995C7.27967 5.10832 7.27242 4.79141 7.4615 4.59237L7.46158 4.59229C8.12052 3.89834 9.0466 3.5 10 3.5C10.9093 3.5 11.769 3.84663 12.427 4.48096C12.6252 4.67234 12.6313 4.98871 12.4392 5.18783L12.4392 5.18785C12.2478 5.3862 11.9314 5.39233 11.7322 5.20021C10.7599 4.26193 9.11911 4.29872 8.18728 5.28086L8.55 5.625ZM8.55 5.625C8.352 5.833 8.089 5.937 7.824 5.937C7.577 5.937 7.329 5.846 7.136 5.662L8.55 5.625ZM16.5 7V7.5H17C18.3779 7.5 19.5 8.62214 19.5 10V12C19.5 13.3779 18.3779 14.5 17 14.5H16.907H16.4929L16.4158 14.9069C16.0284 16.9496 14.2339 18.5 12.083 18.5H11.722H11.4348L11.2901 18.7481C11.0266 19.2 10.5473 19.5 10 19.5H9C8.17314 19.5 7.5 18.8269 7.5 18V17C7.5 16.1731 8.17314 15.5 9 15.5H10C10.8269 15.5 11.5 16.1731 11.5 17V17.5H12H12.083C13.9671 17.5 15.5 15.9671 15.5 14.083V7C15.5 3.96686 13.0331 1.5 10 1.5C6.96686 1.5 4.5 3.96686 4.5 7V14C4.5 14.2769 4.27686 14.5 4 14.5H3C1.62214 14.5 0.5 13.3779 0.5 12V10C0.5 8.62214 1.62214 7.5 3 7.5H3.5V7C3.5 3.41714 6.41714 0.5 10 0.5C13.5829 0.5 16.5 3.41714 16.5 7ZM3 13.5H3.5V13V9V8.5H3C2.17186 8.5 1.5 9.17186 1.5 10V12C1.5 12.8281 2.17186 13.5 3 13.5ZM10 18.5H10.5V18V17V16.5H10H9H8.5V17V18V18.5H9H10ZM16.5 13V13.5H17C17.8281 13.5 18.5 12.8281 18.5 12V10C18.5 9.17186 17.8281 8.5 17 8.5H16.5V9V13Z" fill="#6B7280" stroke="#6B7280"/>
</svg>
