<svg width="18" height="19" viewBox="0 0 18 19" fill="none" xmlns="http://www.w3.org/2000/svg">
<path d="M14.2628 8.2165L5.25826 2.9545C5.02938 2.82158 4.76962 2.75106 4.50494 2.75001C4.24026 2.74896 3.97994 2.8174 3.75001 2.9485C3.52164 3.07671 3.33169 3.26363 3.19982 3.48991C3.06796 3.71619 2.99897 3.97361 3.00001 4.2355V14.7595C2.99897 15.0214 3.06796 15.2788 3.19982 15.5051C3.33169 15.7314 3.52164 15.9183 3.75001 16.0465C3.97986 16.1783 4.24039 16.2471 4.50532 16.246C4.77025 16.245 5.03022 16.1741 5.25901 16.0405L14.2643 10.7785C14.4886 10.6483 14.6748 10.4614 14.8042 10.2366C14.9337 10.0118 15.0018 9.75691 15.0018 9.4975C15.0018 9.2381 14.9337 8.98324 14.8042 8.75843C14.6748 8.53363 14.4886 8.34675 14.2643 8.2165H14.2628Z" fill="#374151"/>
</svg>
