<svg width="18" height="19" viewBox="0 0 18 19" fill="none" xmlns="http://www.w3.org/2000/svg">
<path d="M11.5 5.15789V5.65789H12H15C15.0578 5.65789 15.1187 5.68182 15.1678 5.7335C15.2178 5.78605 15.25 5.86255 15.25 5.94737C15.25 6.03218 15.2178 6.10869 15.1678 6.16124C15.1187 6.21291 15.0578 6.23684 15 6.23684H14.25H13.75V6.73684V15.4211C13.75 15.7152 13.6387 15.9926 13.4482 16.1932C13.2584 16.3929 13.0067 16.5 12.75 16.5H5.25C4.9933 16.5 4.74159 16.3929 4.55184 16.1932C4.36126 15.9926 4.25 15.7152 4.25 15.4211V6.73684V6.23684H3.75H3C2.94221 6.23684 2.88126 6.21291 2.83217 6.16124C2.78225 6.10869 2.75 6.03218 2.75 5.94737C2.75 5.86256 2.78225 5.78605 2.83217 5.7335C2.88126 5.68182 2.94221 5.65789 3 5.65789H6H6.5V5.15789V3.57895C6.5 3.28475 6.61126 3.00744 6.80184 2.80684C6.99159 2.6071 7.2433 2.5 7.5 2.5H10.5C10.7567 2.5 11.0084 2.6071 11.1982 2.80684L11.5607 2.46246L11.1982 2.80684C11.3887 3.00744 11.5 3.28475 11.5 3.57895V5.15789ZM7.5 3.07895H7V3.57895V5.15789V5.65789H7.5H10.5H11V5.15789V3.57895V3.07895H10.5H7.5ZM8.39283 14.7447C8.62421 14.5012 8.75 14.1761 8.75 13.8421V8.31579C8.75 7.98184 8.62421 7.65673 8.39283 7.41317C8.16062 7.16874 7.84004 7.02632 7.5 7.02632C7.15996 7.02632 6.83938 7.16874 6.60717 7.41317C6.37579 7.65673 6.25 7.98184 6.25 8.31579V13.8421C6.25 14.1761 6.37579 14.5012 6.60717 14.7447C6.83938 14.9892 7.15996 15.1316 7.5 15.1316C7.84004 15.1316 8.16062 14.9892 8.39283 14.7447ZM11.3928 14.7447C11.6242 14.5012 11.75 14.1761 11.75 13.8421V8.31579C11.75 7.98184 11.6242 7.65673 11.3928 7.41317C11.1606 7.16874 10.84 7.02632 10.5 7.02632C10.16 7.02632 9.83938 7.16874 9.60717 7.41317C9.37579 7.65673 9.25 7.98184 9.25 8.31579V13.8421C9.25 14.1761 9.37579 14.5012 9.60717 14.7447C9.83938 14.9892 10.16 15.1316 10.5 15.1316C10.84 15.1316 11.1606 14.9892 11.3928 14.7447Z" fill="#C81E1E" stroke="#C81E1E"/>
</svg>
