<svg width="40" height="40" viewBox="0 0 40 40" fill="none" xmlns="http://www.w3.org/2000/svg">
<rect width="40" height="40" rx="20" fill="#E5EDFF"/>
<path d="M20 14.6C21.1046 14.6 22 13.7941 22 12.8C22 11.8059 21.1046 11 20 11C18.8954 11 18 11.8059 18 12.8C18 13.7941 18.8954 14.6 20 14.6Z" fill="#6875F5"/>
<path d="M20 21.8C21.1046 21.8 22 20.9941 22 20C22 19.0059 21.1046 18.2 20 18.2C18.8954 18.2 18 19.0059 18 20C18 20.9941 18.8954 21.8 20 21.8Z" fill="#6875F5"/>
<path d="M20 29C21.1046 29 22 28.1941 22 27.2C22 26.2059 21.1046 25.4 20 25.4C18.8954 25.4 18 26.2059 18 27.2C18 28.1941 18.8954 29 20 29Z" fill="#6875F5"/>
</svg>
